<?xml version="1.0" encoding="UTF-8" standalone="no"?>
<!DOCTYPE svg PUBLIC "-//W3C//DTD SVG 1.1//EN" "http://www.w3.org/Graphics/SVG/1.1/DTD/svg11.dtd">
<svg width="100%" height="100%" viewBox="0 0 328 512" version="1.1" xmlns="http://www.w3.org/2000/svg" xmlns:xlink="http://www.w3.org/1999/xlink" xml:space="preserve" xmlns:serif="http://www.serif.com/" style="fill-rule:evenodd;clip-rule:evenodd;stroke-linejoin:round;stroke-miterlimit:2;">
    <g id="aicctv">
        <g transform="matrix(1,0,0,1,-92.0014,0)">
            <path d="M419.203,163.601C419.203,74.203 347.5,1.555 258.469,0.023C168.945,-1.512 94.266,69.961 92.051,159.473C90.59,218.492 120.516,271.043 166.797,301.012C172.914,304.972 178.195,310.097 182.148,316.222C200.867,345.211 219.332,376.328 238.516,431.203C244.176,447.398 267.039,447.367 272.699,431.172C297.758,359.476 331.223,312.82 330.531,313.886C333.504,309.308 337.41,305.402 342.039,302.515C388.402,273.605 419.203,222.156 419.203,163.601Z" style="fill:rgb(255,136,0);fill-rule:nonzero;"/>
        </g>
        <g transform="matrix(1,0,0,1,-92.0014,0)">
            <path d="M277.914,489.687C277.914,502.011 267.926,512 255.602,512C243.277,512 233.289,502.011 233.289,489.687C233.289,477.363 243.277,467.375 255.602,467.375C267.926,467.375 277.914,477.363 277.914,489.687Z" style="fill:rgb(255,136,0);fill-rule:nonzero;"/>
        </g>
        <g transform="matrix(1,0,0,1,-92.0014,0)">
            <path d="M269.422,431.203C250.242,376.328 231.773,345.211 213.059,316.222C209.106,310.097 203.824,304.972 197.703,301.012C151.426,271.043 121.5,218.492 122.961,159.473C125.02,76.109 189.945,8.398 271.168,0.734C266.98,0.34 262.746,0.098 258.469,0.023C168.945,-1.512 94.266,69.961 92.051,159.473C90.59,218.492 120.516,271.043 166.797,301.012C172.914,304.972 178.195,310.097 182.148,316.222C200.867,345.211 219.332,376.328 238.516,431.203C243.73,446.125 263.539,447.261 271.051,434.679C270.418,433.617 269.863,432.465 269.422,431.203Z" style="fill:rgb(255,136,0);fill-rule:nonzero;"/>
        </g>
        <g transform="matrix(1,0,0,1,-92.0014,0)">
            <path d="M260.074,489.687C260.074,482.39 263.578,475.91 268.996,471.84C265.262,469.035 260.629,467.375 255.602,467.375C243.277,467.375 233.289,477.363 233.289,489.687C233.289,502.007 243.277,512 255.602,512C260.629,512 265.266,510.336 268.996,507.531C263.578,503.461 260.074,496.984 260.074,489.687Z" style="fill:rgb(255,136,0);fill-rule:nonzero;"/>
        </g>
        <g transform="matrix(1,0,0,1,-92.0014,0)">
            <path d="M255.602,275.406C192.809,275.406 141.719,224.32 141.719,161.523C141.719,98.73 192.809,47.641 255.602,47.641C318.394,47.641 369.484,98.73 369.484,161.523C369.484,224.32 318.394,275.406 255.602,275.406Z" style="fill:white;fill-rule:nonzero;"/>
        </g>
        <g id="cctv-camera.svg" transform="matrix(0.31834,0,0,0.31834,154.167,156.644)">
            <g transform="matrix(1,0,0,1,-256,-256)">
                <clipPath id="_clip1">
                    <rect x="0" y="0" width="512" height="512"/>
                </clipPath>
                <g clip-path="url(#_clip1)">
                    <g>
                        <path d="M180.079,269.228L341.06,108.247L262.313,29.498C256.361,23.545 246.714,23.537 240.751,29.476L0,269.228L180.079,269.228Z" style="fill-rule:nonzero;"/>
                        <path d="M496.738,261.088L461.125,261.088C435.878,261.088 415.338,281.628 415.338,306.875L415.338,358.768L378.231,358.768C368.932,331.237 337.465,318.358 311.676,331.203L285.314,304.84L338.411,251.743C356.262,233.892 356.262,204.848 338.411,186.997L321.944,170.53L197.193,295.282C194.331,298.144 190.449,299.753 186.402,299.753L98.91,299.753L185.36,386.202C191.441,390.799 199.947,390.21 205.333,384.822L263.731,326.424L290.094,352.786C274.348,384.399 297.458,421.852 332.921,421.852C353.954,421.852 371.846,408.197 378.232,389.292L415.339,389.292L415.339,441.184C415.339,466.431 435.879,486.972 461.126,486.972L496.739,486.972C505.167,486.972 512.001,480.138 512.001,471.709L512.001,276.349C512,267.922 505.166,261.088 496.738,261.088Z" style="fill-rule:nonzero;"/>
                        <path d="M70.087,314.099L53.508,330.678C47.548,336.637 47.548,346.301 53.508,352.262L110.488,409.242C116.449,415.202 126.112,415.202 132.072,409.242L148.651,392.663L70.087,314.099Z" style="fill-rule:nonzero;"/>
                    </g>
                </g>
            </g>
        </g>
    </g>
</svg>
