<?xml version="1.0" encoding="UTF-8" standalone="no"?>
<!DOCTYPE svg PUBLIC "-//W3C//DTD SVG 1.1//EN" "http://www.w3.org/Graphics/SVG/1.1/DTD/svg11.dtd">
<svg width="100%" height="100%" viewBox="0 0 328 512" version="1.1" xmlns="http://www.w3.org/2000/svg" xmlns:xlink="http://www.w3.org/1999/xlink" xml:space="preserve" xmlns:serif="http://www.serif.com/" style="fill-rule:evenodd;clip-rule:evenodd;stroke-linejoin:round;stroke-miterlimit:2;">
    <g id="blue">
        <g transform="matrix(1,0,0,1,-92.0014,0)">
            <path d="M419.203,163.601C419.203,74.203 347.5,1.555 258.469,0.023C168.945,-1.512 94.266,69.961 92.051,159.473C90.59,218.492 120.516,271.043 166.797,301.012C172.914,304.972 178.195,310.097 182.148,316.222C200.867,345.211 219.332,376.328 238.516,431.203C244.176,447.398 267.039,447.367 272.699,431.172C297.758,359.476 331.223,312.82 330.531,313.886C333.504,309.308 337.41,305.402 342.039,302.515C388.402,273.605 419.203,222.156 419.203,163.601Z" style="fill:rgb(30,42,128);fill-rule:nonzero;"/>
        </g>
        <g transform="matrix(1,0,0,1,-92.0014,0)">
            <path d="M277.914,489.687C277.914,502.011 267.926,512 255.602,512C243.277,512 233.289,502.011 233.289,489.687C233.289,477.363 243.277,467.375 255.602,467.375C267.926,467.375 277.914,477.363 277.914,489.687Z" style="fill:rgb(30,42,128);fill-rule:nonzero;"/>
        </g>
        <g transform="matrix(1,0,0,1,-92.0014,0)">
            <path d="M269.422,431.203C250.242,376.328 231.773,345.211 213.059,316.222C209.106,310.097 203.824,304.972 197.703,301.012C151.426,271.043 121.5,218.492 122.961,159.473C125.02,76.109 189.945,8.398 271.168,0.734C266.98,0.34 262.746,0.098 258.469,0.023C168.945,-1.512 94.266,69.961 92.051,159.473C90.59,218.492 120.516,271.043 166.797,301.012C172.914,304.972 178.195,310.097 182.148,316.222C200.867,345.211 219.332,376.328 238.516,431.203C243.73,446.125 263.539,447.261 271.051,434.679C270.418,433.617 269.863,432.465 269.422,431.203Z" style="fill:rgb(30,42,128);fill-rule:nonzero;"/>
        </g>
        <g transform="matrix(1,0,0,1,-92.0014,0)">
            <path d="M260.074,489.687C260.074,482.39 263.578,475.91 268.996,471.84C265.262,469.035 260.629,467.375 255.602,467.375C243.277,467.375 233.289,477.363 233.289,489.687C233.289,502.007 243.277,512 255.602,512C260.629,512 265.266,510.336 268.996,507.531C263.578,503.461 260.074,496.984 260.074,489.687Z" style="fill:rgb(30,42,128);fill-rule:nonzero;"/>
        </g>
        <g transform="matrix(1,0,0,1,-92.0014,0)">
            <path d="M255.602,275.406C192.809,275.406 141.719,224.32 141.719,161.523C141.719,98.73 192.809,47.641 255.602,47.641C318.394,47.641 369.484,98.73 369.484,161.523C369.484,224.32 318.394,275.406 255.602,275.406Z" style="fill:white;fill-rule:nonzero;"/>
        </g>
        <g id="siren.svg" transform="matrix(0.306327,0,0,0.306327,163.6,154.204)">
            <g transform="matrix(1,0,0,1,-256,-256)">
                <rect x="0" y="241" width="61" height="30" style="fill-rule:nonzero;"/>
                <rect x="451" y="241" width="61" height="30" style="fill-rule:nonzero;"/>
                <path d="M383.277,107.512L425.699,65.09L446.91,86.301L404.488,128.723L383.277,107.512Z" style="fill-rule:nonzero;"/>
                <path d="M107.508,128.719L65.086,86.297L86.297,65.086L128.719,107.508L107.508,128.719Z" style="fill-rule:nonzero;"/>
                <rect x="241" y="0" width="30" height="61" style="fill-rule:nonzero;"/>
                <path d="M121,452C104.43,452 91,465.43 91,482L91,512L421,512L421,482C421,465.43 407.57,452 391,452L121,452Z" style="fill-rule:nonzero;"/>
                <path d="M121,256L121,422L391,422L391,256C391,181.559 330.441,121 256,121C181.559,121 121,181.559 121,256ZM241,211L271,211L271,301L241,301L241,211ZM241,331L271,331L271,361L241,361L241,331Z" style="fill-rule:nonzero;"/>
            </g>
        </g>
    </g>
</svg>
