<?xml version="1.0" encoding="UTF-8" standalone="no"?>
<!DOCTYPE svg PUBLIC "-//W3C//DTD SVG 1.1//EN" "http://www.w3.org/Graphics/SVG/1.1/DTD/svg11.dtd">
<svg width="100%" height="100%" viewBox="0 0 328 512" version="1.1" xmlns="http://www.w3.org/2000/svg" xmlns:xlink="http://www.w3.org/1999/xlink" xml:space="preserve" xmlns:serif="http://www.serif.com/" style="fill-rule:evenodd;clip-rule:evenodd;stroke-linejoin:round;stroke-miterlimit:2;">
    <g id="cctv">
        <g transform="matrix(1,0,0,1,-92.0014,0)">
            <path d="M419.203,163.601C419.203,74.203 347.5,1.555 258.469,0.023C168.945,-1.512 94.266,69.961 92.051,159.473C90.59,218.492 120.516,271.043 166.797,301.012C172.914,304.972 178.195,310.097 182.148,316.222C200.867,345.211 219.332,376.328 238.516,431.203C244.176,447.398 267.039,447.367 272.699,431.172C297.758,359.476 331.223,312.82 330.531,313.886C333.504,309.308 337.41,305.402 342.039,302.515C388.402,273.605 419.203,222.156 419.203,163.601Z" style="fill:rgb(102,69,199);fill-rule:nonzero;"/>
        </g>
        <g transform="matrix(1,0,0,1,-92.0014,0)">
            <path d="M277.914,489.687C277.914,502.011 267.926,512 255.602,512C243.277,512 233.289,502.011 233.289,489.687C233.289,477.363 243.277,467.375 255.602,467.375C267.926,467.375 277.914,477.363 277.914,489.687Z" style="fill:rgb(102,69,199);fill-rule:nonzero;"/>
        </g>
        <g transform="matrix(1,0,0,1,-92.0014,0)">
            <path d="M269.422,431.203C250.242,376.328 231.773,345.211 213.059,316.222C209.106,310.097 203.824,304.972 197.703,301.012C151.426,271.043 121.5,218.492 122.961,159.473C125.02,76.109 189.945,8.398 271.168,0.734C266.98,0.34 262.746,0.098 258.469,0.023C168.945,-1.512 94.266,69.961 92.051,159.473C90.59,218.492 120.516,271.043 166.797,301.012C172.914,304.972 178.195,310.097 182.148,316.222C200.867,345.211 219.332,376.328 238.516,431.203C243.73,446.125 263.539,447.261 271.051,434.679C270.418,433.617 269.863,432.465 269.422,431.203Z" style="fill:rgb(102,69,199);fill-rule:nonzero;"/>
        </g>
        <g transform="matrix(1,0,0,1,-92.0014,0)">
            <path d="M260.074,489.687C260.074,482.39 263.578,475.91 268.996,471.84C265.262,469.035 260.629,467.375 255.602,467.375C243.277,467.375 233.289,477.363 233.289,489.687C233.289,502.007 243.277,512 255.602,512C260.629,512 265.266,510.336 268.996,507.531C263.578,503.461 260.074,496.984 260.074,489.687Z" style="fill:rgb(102,69,199);fill-rule:nonzero;"/>
        </g>
        <g transform="matrix(1,0,0,1,-92.0016,0)">
            <path d="M255.602,275.406C192.809,275.406 141.719,224.32 141.719,161.523C141.719,98.73 192.809,47.641 255.602,47.641C318.394,47.641 369.484,98.73 369.484,161.523C369.484,224.32 318.394,275.406 255.602,275.406Z" style="fill:white;fill-rule:nonzero;"/>
        </g>
        <g id="cctv--6-.svg" serif:id="cctv (6).svg" transform="matrix(0.273967,0,0,0.273967,163.626,175.602)">
            <g transform="matrix(1,0,0,1,-256,-256)">
                <g>
                    <g>
                        <path d="M497.231,54.154L14.769,54.154C6.613,54.154 0,60.767 0,68.923L0,152.615L512,152.615L512,68.923C512,60.767 505.387,54.154 497.231,54.154ZM374.154,132.923L354.462,132.923C346.305,132.923 339.693,126.31 339.693,118.154C339.693,109.998 346.306,103.385 354.462,103.385L374.154,103.385C382.311,103.385 388.923,109.998 388.923,118.154C388.923,126.31 382.31,132.923 374.154,132.923ZM433.231,132.923L413.539,132.923C405.382,132.923 398.77,126.31 398.77,118.154C398.77,109.998 405.383,103.385 413.539,103.385L433.231,103.385C441.388,103.385 448,109.998 448,118.154C448,126.31 441.387,132.923 433.231,132.923Z" style="fill-rule:nonzero;"/>
                    </g>
                </g>
                <g>
                    <g>
                        <path d="M256,241.231C220.71,241.231 192,269.941 192,305.231C192,340.521 220.71,369.231 256,369.231C291.29,369.231 320,340.521 320,305.231C320,269.941 291.29,241.231 256,241.231ZM256,335.754C239.169,335.754 225.477,322.061 225.477,305.231C225.477,288.401 239.169,274.708 256,274.708C272.831,274.708 286.523,288.401 286.523,305.231C286.523,322.061 272.831,335.754 256,335.754Z" style="fill-rule:nonzero;"/>
                    </g>
                </g>
                <g>
                    <g>
                        <path d="M44.308,182.154L44.308,246.154C44.308,302.699 66.328,355.86 106.311,395.843C146.294,435.826 199.455,457.846 256,457.846C312.545,457.846 365.706,435.826 405.689,395.843C445.672,355.86 467.692,302.699 467.692,246.154L467.692,182.154L44.308,182.154ZM256,398.769C204.423,398.769 162.462,356.808 162.462,305.231C162.462,253.654 204.423,211.693 256,211.693C307.577,211.693 349.538,253.654 349.538,305.231C349.538,356.808 307.577,398.769 256,398.769Z" style="fill-rule:nonzero;"/>
                    </g>
                </g>
            </g>
        </g>
    </g>
</svg>
