<?xml version="1.0" encoding="UTF-8" standalone="no"?>
<!DOCTYPE svg PUBLIC "-//W3C//DTD SVG 1.1//EN" "http://www.w3.org/Graphics/SVG/1.1/DTD/svg11.dtd">
<svg width="100%" height="100%" viewBox="0 0 328 512" version="1.1" xmlns="http://www.w3.org/2000/svg" xmlns:xlink="http://www.w3.org/1999/xlink" xml:space="preserve" xmlns:serif="http://www.serif.com/" style="fill-rule:evenodd;clip-rule:evenodd;stroke-linecap:round;stroke-linejoin:round;stroke-miterlimit:1.5;">
    <g id="thremal">
        <g transform="matrix(1,0,0,1,-92.0014,0)">
            <path d="M419.203,163.601C419.203,74.203 347.5,1.555 258.469,0.023C168.945,-1.512 94.266,69.961 92.051,159.473C90.59,218.492 120.516,271.043 166.797,301.012C172.914,304.972 178.195,310.097 182.148,316.222C200.867,345.211 219.332,376.328 238.516,431.203C244.176,447.398 267.039,447.367 272.699,431.172C297.758,359.476 331.223,312.82 330.531,313.886C333.504,309.308 337.41,305.402 342.039,302.515C388.402,273.605 419.203,222.156 419.203,163.601Z" style="fill:rgb(255,178,23);fill-rule:nonzero;"/>
        </g>
        <g transform="matrix(1,0,0,1,-92.0014,0)">
            <path d="M277.914,489.687C277.914,502.011 267.926,512 255.602,512C243.277,512 233.289,502.011 233.289,489.687C233.289,477.363 243.277,467.375 255.602,467.375C267.926,467.375 277.914,477.363 277.914,489.687Z" style="fill:rgb(255,178,23);fill-rule:nonzero;"/>
        </g>
        <g transform="matrix(1,0,0,1,-92.0014,0)">
            <path d="M269.422,431.203C250.242,376.328 231.773,345.211 213.059,316.222C209.106,310.097 203.824,304.972 197.703,301.012C151.426,271.043 121.5,218.492 122.961,159.473C125.02,76.109 189.945,8.398 271.168,0.734C266.98,0.34 262.746,0.098 258.469,0.023C168.945,-1.512 94.266,69.961 92.051,159.473C90.59,218.492 120.516,271.043 166.797,301.012C172.914,304.972 178.195,310.097 182.148,316.222C200.867,345.211 219.332,376.328 238.516,431.203C243.73,446.125 263.539,447.261 271.051,434.679C270.418,433.617 269.863,432.465 269.422,431.203Z" style="fill:rgb(255,178,23);fill-rule:nonzero;"/>
        </g>
        <g transform="matrix(1,0,0,1,-92.0014,0)">
            <path d="M260.074,489.687C260.074,482.39 263.578,475.91 268.996,471.84C265.262,469.035 260.629,467.375 255.602,467.375C243.277,467.375 233.289,477.363 233.289,489.687C233.289,502.007 243.277,512 255.602,512C260.629,512 265.266,510.336 268.996,507.531C263.578,503.461 260.074,496.984 260.074,489.687Z" style="fill:rgb(255,178,23);fill-rule:nonzero;"/>
        </g>
        <g transform="matrix(1,0,0,1,-92.0014,0)">
            <path d="M255.602,275.406C192.809,275.406 141.719,224.32 141.719,161.523C141.719,98.73 192.809,47.641 255.602,47.641C318.394,47.641 369.484,98.73 369.484,161.523C369.484,224.32 318.394,275.406 255.602,275.406Z" style="fill:white;fill-rule:nonzero;"/>
        </g>
        <g transform="matrix(0.306865,0,0,0.306865,93.2671,91.1434)">
            <path d="M161.667,32.529L163.619,10.409L122.633,13.662L77.743,208.183L116.778,215.339L68.635,497.037L159.715,498.989L237.784,288.203L289.179,282.999L285.276,216.64L354.887,208.183L365.296,130.765L361.393,33.179L171.426,22.119L161.667,32.529Z" style="stroke:black;stroke-width:3.26px;"/>
            <path d="M350.341,16.032L171.585,16.032C171.714,12.321 170.531,8.675 168.143,5.735C165.184,2.09 160.794,-0 156.099,-0L137.403,-0C122.558,-0 109.572,10.545 106.526,25.074L70.883,195.058C69.422,202.027 71.158,209.194 75.647,214.722C80.136,220.25 86.794,223.42 93.915,223.42L113.033,223.42L58.471,483.639C57.01,490.608 58.746,497.775 63.235,503.303C67.724,508.83 74.382,512 81.503,512L142.859,512C159.915,512 174.999,501.128 180.393,484.947L243.52,295.564L276.315,295.564C283,295.564 289.391,292.707 293.849,287.726C298.307,282.745 300.441,276.077 299.703,269.433L294.59,223.419L334.307,223.419C356.123,223.419 373.871,205.67 373.871,183.855L373.871,39.564C373.873,26.589 363.317,16.032 350.341,16.032ZM358.873,136.274L350.341,136.274C345.636,136.274 341.809,132.446 341.809,127.741L341.809,79.645C341.809,74.94 345.637,71.113 350.341,71.113L358.873,71.113L358.873,136.274ZM176.597,448.903L152.445,448.903C149.669,448.903 147.146,447.611 145.523,445.36C143.9,443.109 143.473,440.306 144.351,437.673L180.777,328.393C184.126,318.347 193.491,311.597 204.081,311.597L222.366,311.597L176.597,448.903ZM284.796,271.09C285.067,273.534 284.314,275.89 282.673,277.723C281.032,279.556 278.775,280.565 276.316,280.565L248.521,280.565L267.569,223.42L279.499,223.42L284.796,271.09ZM334.309,208.419L157.954,208.419C153.812,208.419 150.454,211.777 150.454,215.919C150.454,220.061 153.812,223.419 157.954,223.419L251.758,223.419L227.366,296.596L204.081,296.596C187.024,296.596 171.94,307.468 166.547,323.649L130.12,432.93C127.699,440.193 128.878,447.92 133.354,454.131C137.831,460.341 144.789,463.903 152.444,463.903L171.596,463.903L166.163,480.203C162.815,490.25 153.449,497 142.859,497L81.503,497C78.921,497 76.507,495.851 74.879,493.847C73.252,491.842 72.622,489.243 73.151,486.717L159.863,73.169C160.713,69.115 158.116,65.14 154.062,64.29C150.008,63.44 146.033,66.038 145.183,70.091L116.179,208.42L93.915,208.42C91.333,208.42 88.919,207.271 87.291,205.266C85.664,203.262 85.034,200.663 85.563,198.137L121.205,28.153C122.804,20.531 129.615,15 137.402,15L156.098,15C156.172,15 156.344,15 156.499,15.191C156.654,15.382 156.619,15.55 156.603,15.622L151.905,38.026C151.055,42.08 153.652,46.055 157.706,46.905C161.757,47.754 165.735,45.157 166.585,41.104L168.697,31.032L350.339,31.032C355.044,31.032 358.871,34.86 358.871,39.564L358.871,56.112L350.339,56.112C337.363,56.112 326.807,66.669 326.807,79.644L326.807,127.741C326.807,140.717 337.364,151.274 350.339,151.274L358.871,151.274L358.871,183.855C358.873,197.4 347.854,208.419 334.309,208.419Z" style="fill:white;fill-rule:nonzero;"/>
            <path d="M398.438,112.226C394.296,112.226 390.938,115.584 390.938,119.726C390.938,123.868 394.296,127.226 398.438,127.226C411.414,127.226 421.97,116.669 421.97,103.694C421.97,90.719 411.413,80.162 398.438,80.162C394.296,80.162 390.938,83.52 390.938,87.662C390.938,91.804 394.296,95.162 398.438,95.162C403.143,95.162 406.97,98.99 406.97,103.694C406.97,108.398 403.142,112.226 398.438,112.226Z" style="fill-rule:nonzero;"/>
            <path d="M398.438,48.097C394.296,48.097 390.938,51.455 390.938,55.597C390.938,59.739 394.296,63.097 398.438,63.097C420.823,63.097 439.035,81.308 439.035,103.694C439.035,126.08 420.823,144.291 398.438,144.291C394.296,144.291 390.938,147.649 390.938,151.791C390.938,155.933 394.296,159.291 398.438,159.291C429.094,159.291 454.035,134.35 454.035,103.694C454.035,73.038 429.094,48.097 398.438,48.097Z" style="fill-rule:nonzero;"/>
            <g transform="matrix(3.56808,0,0,3.56808,-346.167,-351.52)">
                <path d="M129.574,156.433L134.327,156.446L145.084,103.202L140.363,103.226L129.574,156.433Z" style="stroke:black;stroke-width:0.91px;"/>
            </g>
        </g>
    </g>
</svg>
